Coordinates
nRows=124
nColumns=2
inDegrees=yes
endheader
time	ankle_angle_r	
4.24973	 28.533936	
4.31222	 28.625488	
4.37472	 28.594971	
4.43722	 28.549194	
4.49971	 28.594971	
4.56221	 28.488159	
4.6247	 28.533936	
4.6872	 28.518677	
4.7497	 28.472900	
4.81219	 28.625488	
4.87469	 28.579712	
4.93718	 28.564453	
4.99968	 28.625488	
5.06218	 28.457642	
5.12467	 28.533936	
5.18717	 28.549194	
5.24966	 28.503418	
5.31216	 28.671265	
5.37466	 28.594971	
5.43715	 28.579712	
5.49965	 28.656006	
5.56214	 28.488159	
5.62464	 28.549194	
5.68714	 28.472900	
5.74963	 28.503418	
5.81213	 28.610229	
5.87462	 28.594971	
5.93712	 28.640747	
5.99962	 28.625488	
6.06211	 28.533936	
6.12461	 28.564453	
6.1871	 28.533936	
6.2496	 28.579712	
6.3121	 28.671265	
6.37459	 28.594971	
6.43709	 28.579712	
6.49958	 28.594971	
6.56208	 28.518677	
6.62458	 28.503418	
6.68707	 28.564453	
6.74957	 28.594971	
6.81206	 28.594971	
6.87456	 28.594971	
6.93706	 28.564453	
6.99955	 28.488159	
7.06205	 28.549194	
7.12454	 28.488159	
7.18704	 28.533936	
7.24954	 28.610229	
7.31203	 28.579712	
7.37453	 28.579712	
7.43702	 28.625488	
7.49952	 28.472900	
7.56202	 28.579712	
7.62451	 28.564453	
7.68701	 28.564453	
7.7495	 28.640747	
7.812	 28.518677	
7.8745	 28.594971	
7.93699	 28.625488	
7.99949	 28.472900	
8.06198	 28.564453	
8.12448	 28.472900	
8.18698	 28.488159	
8.24947	 28.640747	
8.31197	 28.594971	
8.37446	 28.610229	
8.43696	 28.671265	
8.49946	 28.533936	
8.56195	 28.579712	
8.62445	 28.472900	
8.68694	 28.564453	
8.74944	 28.625488	
8.81194	 28.533936	
8.87443	 28.610229	
8.93693	 28.610229	
8.99942	 28.518677	
9.06192	 28.549194	
9.12442	 28.533936	
9.18691	 28.610229	
9.24941	 28.625488	
9.3119	 28.518677	
9.3744	 28.594971	
9.4369	 28.488159	
9.49939	 28.503418	
9.56189	 28.503418	
9.62438	 28.488159	
9.68688	 28.625488	
9.74938	 28.610229	
9.81187	 28.579712	
9.87437	 28.656006	
9.93686	 28.503418	
9.99936	 28.503418	
10.0619	 28.503418	
10.1244	 28.488159	
10.1868	 28.640747	
10.2493	 28.549194	
10.3118	 28.594971	
10.3743	 28.625488	
10.4368	 28.457642	
10.4993	 28.549194	
10.5618	 28.533936	
10.6243	 28.442383	
10.6868	 28.625488	
10.7493	 28.549194	
10.8118	 28.579712	
10.8743	 28.564453	
10.9368	 28.533936	
10.9993	 28.533936	
11.0618	 28.472900	
11.1243	 28.518677	
11.1868	 28.564453	
11.2493	 28.533936	
11.3118	 28.594971	
11.3743	 28.503418	
11.4368	 28.533936	
11.4993	 28.564453	
11.5618	 28.625488	
11.6243	 28.640747	
11.6868	 28.625488	
11.7492	 28.564453	
11.8117	 28.610229	
11.8742	 28.549194	
11.9367	 28.579712	
